<?xml version="1.0" standalone="no"?>
<!DOCTYPE svg PUBLIC "-//W3C//DTD SVG 20010904//EN"
 "http://www.w3.org/TR/2001/REC-SVG-20010904/DTD/svg10.dtd">
<svg version="1.0" xmlns="http://www.w3.org/2000/svg"
 width="375.000000pt" height="812.000000pt" viewBox="0 0 375.000000 812.000000"
 preserveAspectRatio="xMidYMid meet">

<g transform="translate(0.000000,812.000000) scale(0.100000,-0.100000)"
fill="#000000" stroke="none">
<path d="M1060 8105 c0 -11 11 -15 38 -15 45 0 62 -14 62 -52 0 -21 5 -28 20
-28 17 0 20 -7 20 -39 0 -22 4 -41 9 -43 12 -4 51 -138 58 -195 3 -24 8 -41
12 -38 4 2 5 -9 3 -26 -3 -20 0 -29 10 -29 20 0 37 20 31 36 -3 10 3 14 19 14
19 0 29 10 46 44 12 24 22 47 22 51 0 5 6 16 14 24 10 11 16 49 20 114 3 53 7
101 10 105 3 5 8 28 12 50 l7 42 -207 0 c-176 0 -206 -2 -206 -15z"/>
<path d="M1891 7888 c1 -237 -2 -280 -28 -310 -8 -9 -12 -22 -8 -28 4 -7 2
-15 -4 -19 -12 -8 10 -63 36 -89 7 -7 13 -27 13 -43 0 -16 5 -29 10 -29 15 0
12 -113 -2 -129 -10 -11 -10 -13 0 -7 6 4 12 2 12 -4 0 -6 -7 -13 -15 -16 -24
-9 -18 -43 10 -56 33 -15 79 -4 382 88 260 79 309 96 478 169 197 84 251 114
268 150 11 24 13 35 4 44 -8 8 -8 22 -1 50 10 36 9 41 -17 62 -25 21 -27 27
-22 73 3 28 12 61 19 73 8 12 14 34 14 49 0 15 7 35 16 45 12 14 13 22 4 39
-12 23 3 90 21 90 5 0 9 7 9 15 0 13 -73 15 -600 15 l-601 0 2 -232z"/>
<path d="M3127 6336 c-37 -13 -96 -26 -130 -29 -34 -3 -76 -12 -93 -21 -38
-20 -222 -211 -226 -235 -2 -13 8 -17 50 -21 30 -3 56 -2 58 2 3 4 17 3 31 -3
18 -7 30 -6 37 1 15 15 26 12 26 -6 0 -11 11 -6 40 18 22 18 40 38 40 43 0 14
125 74 165 79 6 1 21 7 35 13 14 6 63 21 110 33 92 24 133 42 168 73 31 28 28
35 -20 57 -62 28 -200 26 -291 -4z"/>
<path d="M3385 6000 c-32 -14 -238 -42 -380 -51 -173 -11 -215 -18 -244 -40
-13 -11 -29 -19 -35 -19 -10 0 -38 -12 -194 -88 -39 -18 -65 -41 -95 -81 -22
-31 -49 -63 -59 -72 -10 -9 -18 -19 -18 -23 0 -4 -9 -19 -19 -34 -23 -32 -35
-120 -22 -153 5 -13 10 -18 10 -11 1 6 5 12 11 12 5 0 9 -10 7 -22 -1 -17 4
-24 21 -26 12 -2 22 -10 22 -19 0 -11 -6 -14 -24 -9 -14 3 -28 1 -31 -4 -5 -8
-11 -7 -21 1 -10 8 -18 8 -27 1 -7 -6 -18 -8 -24 -4 -7 4 -29 6 -50 4 -21 -1
-95 -4 -165 -6 -69 -2 -131 -7 -137 -10 -5 -4 -12 -2 -16 4 -3 6 -14 7 -23 2
-9 -4 -50 -7 -90 -6 -40 0 -75 -3 -78 -8 -6 -10 -24 -1 -24 13 0 5 6 8 13 7 8
-2 11 8 9 33 -1 20 4 49 13 65 8 16 15 34 15 40 0 7 9 14 21 17 44 12 6 26
-65 24 -55 -1 -79 -7 -93 -20 -17 -15 -32 -16 -94 -11 -54 4 -70 3 -59 -5 8
-6 40 -11 71 -11 71 0 92 -19 88 -82 -2 -24 -8 -46 -14 -50 -6 -5 -2 -8 8 -8
10 0 16 -3 14 -8 -8 -12 -644 -1 -665 12 -6 3 -13 2 -16 -3 -3 -5 -28 -7 -56
-5 -41 3 -52 0 -64 -18 -8 -11 -12 -27 -9 -35 5 -12 1 -14 -14 -9 -21 7 -26 2
-178 -168 -38 -43 -72 -84 -74 -90 -5 -16 -63 -76 -74 -76 -5 0 4 15 19 34 16
19 44 54 63 78 l33 43 -35 -37 c-20 -20 -39 -33 -43 -30 -4 4 -4 1 0 -5 5 -9
0 -13 -16 -14 -13 -1 -35 -2 -50 -3 -15 -1 -30 -5 -34 -9 -4 -4 -21 -7 -38 -7
-17 0 -87 -11 -156 -24 -69 -14 -142 -28 -162 -31 l-38 -6 0 -113 0 -113 88
-17 c48 -10 96 -18 107 -19 14 -1 46 27 103 90 45 50 82 96 82 100 0 11 63 73
74 73 5 0 -8 -19 -28 -42 -198 -228 -294 -341 -326 -383 -20 -28 -44 -56 -54
-64 -29 -24 -47 -76 -44 -124 l3 -45 187 227 c102 124 279 336 393 470 113
135 210 251 214 259 12 22 21 13 96 -97 l69 -101 -25 -27 -24 -28 27 24 27 23
265 -398 c215 -322 263 -400 248 -402 -17 -3 -19 -18 -25 -164 -4 -89 -6 -163
-4 -164 1 -1 20 -4 42 -6 l40 -3 3 133 c1 72 6 132 10 132 4 0 15 -18 26 -39
15 -33 18 -56 14 -140 l-5 -101 33 2 c32 2 33 3 40 57 6 47 9 53 18 37 18 -30
486 -718 511 -752 l24 -31 91 2 c50 2 93 5 95 6 1 2 5 477 7 1054 5 1041 5
1050 -15 1068 -11 9 -18 20 -15 23 3 3 14 -3 24 -13 17 -17 17 -16 11 19 -5
31 -2 40 16 53 30 21 44 19 24 -3 -28 -31 -19 -35 14 -7 45 37 48 23 5 -25
-37 -41 -49 -77 -21 -66 9 3 15 0 15 -8 0 -7 -7 -19 -15 -26 -8 -7 -15 -17
-15 -22 0 -6 15 3 34 19 19 15 33 33 32 38 -4 13 91 111 100 103 3 -4 -15 -28
-40 -54 -26 -26 -45 -49 -43 -51 2 -2 -15 -23 -39 -47 -23 -24 -40 -46 -38
-49 3 -3 0 -15 -6 -28 l-13 -22 28 21 c44 35 49 25 11 -20 -44 -51 -47 -73 -8
-63 l27 7 -22 -24 c-36 -38 -27 -53 10 -17 17 18 31 37 29 41 -1 5 17 28 40
51 23 23 41 47 40 53 -1 6 16 28 38 48 22 20 40 40 40 45 0 15 86 101 101 101
8 0 -10 -23 -39 -51 -29 -28 -50 -54 -47 -59 3 -4 -15 -25 -38 -47 -24 -22
-42 -44 -40 -50 2 -5 -16 -28 -41 -51 -24 -22 -41 -43 -38 -46 8 -9 -59 -76
-75 -76 -7 0 -13 -4 -13 -10 0 -5 5 -10 11 -10 8 0 7 -5 -1 -15 -21 -26 -3
-29 29 -5 42 29 39 12 -4 -30 -43 -42 -48 -75 -9 -66 l26 7 -28 -25 c-27 -22
-28 -27 -17 -55 6 -17 7 -31 2 -31 -5 0 -9 -9 -9 -20 0 -20 1 -20 25 -3 13 10
25 23 25 29 0 17 75 94 91 94 8 0 -6 -20 -31 -44 -25 -24 -45 -47 -43 -53 2
-5 -13 -24 -32 -43 -34 -33 -44 -63 -26 -75 5 -3 12 -1 16 5 3 5 11 10 17 10
7 0 0 -13 -15 -28 -42 -44 -32 -58 13 -18 54 48 67 46 21 -4 -20 -22 -42 -40
-49 -40 -16 0 -16 -17 1 -23 10 -4 10 -6 0 -6 -7 -1 -13 -10 -13 -22 0 -20 1
-20 31 5 49 42 57 30 11 -17 -50 -51 -57 -83 -15 -72 l28 7 -28 -22 c-15 -12
-27 -31 -27 -43 0 -18 6 -15 45 23 24 24 47 41 50 38 3 -3 -17 -26 -45 -52
-46 -43 -64 -66 -40 -51 6 3 10 1 10 -4 0 -6 -4 -11 -10 -11 -5 0 -10 -9 -10
-21 0 -20 1 -20 31 5 49 42 57 30 11 -17 -24 -24 -42 -52 -42 -65 0 -23 14
-30 25 -12 3 6 11 10 17 10 7 0 0 -12 -14 -27 -22 -23 -26 -38 -27 -88 0 -59
0 -59 17 -39 18 21 62 49 62 39 0 -3 -18 -21 -40 -41 -25 -23 -40 -45 -40 -60
0 -26 18 -32 38 -12 7 7 12 8 12 2 0 -6 -11 -16 -25 -22 -18 -8 -25 -20 -25
-38 0 -27 0 -26 45 15 24 22 50 41 56 41 15 0 -61 -79 -83 -86 -10 -3 -18 -10
-18 -16 0 -5 8 -7 18 -4 16 6 16 5 0 -8 -10 -7 -18 -21 -18 -30 0 -15 5 -14
31 8 49 42 57 30 11 -17 -42 -43 -59 -96 -27 -83 40 16 47 16 22 -1 -26 -17
-46 -57 -34 -69 3 -3 26 16 52 41 25 26 49 45 52 42 7 -8 -67 -86 -88 -92 -14
-5 -19 -16 -19 -47 l0 -40 35 31 c20 17 39 31 42 31 6 0 -5 -13 -53 -67 -7 -6
-14 -9 -18 -6 -3 4 -6 -10 -6 -30 0 -39 10 -46 30 -22 7 8 18 15 24 15 6 -1
-4 -13 -21 -29 -25 -21 -33 -36 -33 -60 0 -27 3 -32 18 -27 15 6 16 5 1 -7
-14 -10 -17 -33 -17 -120 -1 -77 2 -107 11 -107 7 0 71 -7 142 -15 164 -19
239 -19 254 -2 6 8 23 13 38 12 19 -2 20 -1 6 2 -13 2 -23 6 -23 9 0 14 74
104 86 104 8 0 13 3 13 8 -3 20 2 42 10 42 5 0 7 -8 4 -19 -3 -10 1 -22 7 -26
9 -5 11 3 9 31 -4 49 31 109 67 118 21 6 25 11 21 29 -3 12 1 31 9 41 8 11 14
14 14 8 0 -7 9 -12 20 -12 17 0 20 7 20 38 0 39 21 74 142 240 l46 64 6 -89
c6 -115 6 -109 0 -175 -6 -63 -2 -67 54 -52 22 6 22 7 22 218 0 119 5 218 10
226 6 10 10 -62 10 -212 l0 -228 34 0 c19 0 38 6 42 12 13 20 14 539 2 532 -7
-4 -7 -1 0 12 37 67 37 65 34 -246 l-3 -300 28 0 c59 0 58 -7 59 312 l0 293
-36 5 -37 5 104 140 103 139 0 59 c0 55 -1 59 -21 54 l-21 -6 21 23 c11 12 21
31 21 42 -1 16 -7 13 -33 -17 -18 -19 -41 -39 -52 -43 -16 -6 -14 0 10 26 17
18 38 40 47 48 10 8 20 31 24 50 l5 35 -19 -22 c-11 -13 -25 -23 -32 -23 -6 0
-8 -5 -5 -10 8 -13 -51 -82 -79 -93 -13 -4 -2 11 27 39 27 25 46 49 43 51 -3
3 10 25 29 48 39 48 49 93 16 75 -32 -16 -33 -12 -6 17 43 47 28 58 -20 14
-24 -22 -48 -41 -52 -41 -8 0 31 46 72 83 22 20 25 25 10 20 -19 -6 -19 -6 -2
14 29 33 19 47 -14 19 -49 -41 -58 -30 -11 15 33 31 42 47 42 72 -1 27 -3 30
-13 16 -7 -8 -21 -19 -32 -23 -15 -5 -11 2 13 26 40 42 46 93 10 83 l-23 -7
23 17 c12 9 22 26 22 38 -1 21 -2 20 -29 -9 -15 -17 -36 -34 -47 -38 -11 -4 0
13 26 41 30 31 47 59 49 78 l3 30 -26 -24 c-14 -13 -24 -27 -21 -30 2 -4 -15
-27 -38 -51 -23 -25 -40 -49 -39 -54 4 -11 -55 -73 -83 -89 -22 -11 38 62 61
76 7 4 11 13 8 21 -3 7 15 31 39 53 24 22 42 44 40 49 -2 6 10 23 27 39 28 27
30 33 30 108 0 69 -2 78 -15 67 -11 -10 -18 -10 -29 -1 -11 9 -15 9 -18 -1 -4
-10 -8 -10 -22 1 -15 13 -19 13 -26 0 -7 -11 -12 -11 -21 -2 -9 9 -15 8 -26
-3 -13 -13 -17 -13 -29 3 -13 17 -13 17 -14 1 0 -21 -25 -24 -33 -5 -3 7 10
23 29 36 40 27 44 59 13 87 -38 34 -122 47 -324 49 -228 3 -215 2 -215 18 0
20 91 61 101 46 6 -10 11 -10 24 1 11 9 13 15 5 20 -11 7 24 21 55 24 11 1 85
55 100 73 6 7 67 32 137 56 134 47 161 64 156 99 -6 44 -154 84 -213 58z m110
-559 c3 -5 1 -12 -5 -16 -5 -3 -10 1 -10 9 0 18 6 21 15 7z m-45 -11 c0 -5 -2
-10 -4 -10 -3 0 -8 5 -11 10 -3 6 -1 10 4 10 6 0 11 -4 11 -10z m-940 -65
c-24 -25 -48 -45 -53 -45 -15 0 67 89 83 90 8 0 -5 -20 -30 -45z m97 -13 c-26
-27 -45 -51 -42 -54 7 -6 -81 -88 -95 -88 -5 0 10 20 35 44 25 25 45 48 45 51
0 14 76 94 90 95 8 0 -7 -21 -33 -48z m57 3 c-20 -25 -41 -45 -46 -45 -5 0 -7
-4 -4 -9 4 -5 -13 -29 -36 -52 -24 -24 -43 -46 -43 -49 -1 -17 -43 -63 -69
-77 -30 -15 -29 -13 12 29 23 24 42 49 42 55 0 6 18 27 41 48 22 20 38 39 36
42 -3 3 9 21 26 40 50 56 58 63 68 63 6 0 -6 -20 -27 -45z m146 41 c0 -2 -22
-27 -50 -55 -27 -28 -47 -51 -44 -51 13 0 -61 -75 -80 -83 -14 -5 -6 7 22 35
23 24 42 48 42 53 1 23 110 124 110 101z m5 -55 c-28 -27 -49 -53 -48 -58 2
-6 -16 -28 -41 -51 -24 -22 -40 -42 -34 -44 6 -2 -13 -25 -41 -50 -28 -25 -47
-48 -42 -50 12 -4 -50 -72 -74 -81 -12 -5 -9 2 10 25 15 18 33 36 41 41 7 4
11 13 8 21 -3 7 14 30 38 52 24 21 42 44 40 50 -1 6 16 28 38 48 22 20 40 39
40 43 0 17 83 103 98 103 11 0 0 -17 -33 -49z m60 7 c-22 -23 -47 -48 -55 -55
-8 -7 -11 -13 -6 -13 13 0 -53 -69 -79 -82 -11 -6 -1 9 23 34 23 24 42 48 42
53 0 15 88 105 102 105 7 0 -6 -19 -27 -42z m40 -17 c-28 -27 -49 -53 -47 -59
1 -5 -18 -28 -43 -50 -25 -22 -40 -42 -34 -44 6 -2 -12 -25 -40 -50 -28 -25
-47 -48 -42 -50 12 -4 -50 -73 -75 -82 -11 -4 -2 11 22 36 23 24 40 48 37 54
-2 6 16 29 40 51 24 22 42 44 40 50 -2 5 15 27 39 48 23 22 43 45 45 53 3 21
74 92 93 92 9 0 -5 -20 -35 -49z m59 7 c-21 -24 -41 -44 -46 -46 -4 -2 -8 -9
-8 -17 0 -7 -20 -31 -45 -54 -24 -22 -40 -41 -34 -41 17 0 -60 -87 -83 -93
-15 -4 -8 8 28 44 26 27 44 49 39 49 -5 0 13 23 40 50 28 28 49 54 48 58 -2
11 74 92 88 92 6 0 -6 -19 -27 -42z m86 33 c0 -5 -20 -27 -45 -50 -25 -23 -43
-46 -40 -50 6 -11 -80 -91 -97 -91 -7 0 8 20 33 45 26 24 44 46 42 49 -6 6 87
106 99 106 4 0 8 -4 8 -9z m-1410 -26 c0 -12 -29 -3 -34 10 -4 13 -2 14 14 5
11 -6 20 -13 20 -15z m1423 -20 c-20 -25 -41 -45 -45 -45 -4 0 -7 -4 -5 -9 3
-12 -71 -91 -85 -91 -7 0 7 20 31 44 24 24 43 47 42 50 -3 12 73 96 87 96 7 0
-3 -19 -25 -45z m87 36 c0 -5 -19 -26 -43 -48 -24 -22 -42 -44 -40 -50 2 -5
-16 -28 -39 -49 -24 -22 -43 -44 -43 -50 0 -15 -58 -79 -78 -87 -12 -4 -7 7
14 33 17 21 39 42 47 45 13 5 13 8 4 14 -9 5 1 20 33 50 26 24 44 45 42 48 -6
6 83 103 94 103 5 0 9 -4 9 -9z m15 -45 c-21 -26 -42 -46 -47 -46 -5 0 -7 -4
-4 -8 6 -10 -70 -92 -86 -92 -7 0 7 19 30 43 23 23 42 47 42 52 0 14 90 108
97 102 3 -3 -12 -26 -32 -51z m50 -5 c-28 -27 -49 -53 -48 -58 2 -6 -17 -29
-41 -51 -25 -23 -41 -42 -35 -42 17 0 -62 -88 -84 -94 -14 -3 -6 10 27 43 25
26 44 50 41 53 -3 3 15 26 39 52 25 25 43 46 40 46 -3 0 13 23 36 50 23 28 49
50 58 50 11 0 0 -17 -33 -49z m95 44 c0 -2 -20 -25 -45 -51 -25 -26 -44 -49
-41 -52 8 -7 -81 -92 -96 -92 -7 0 8 21 34 46 26 25 47 49 45 53 -3 11 81 101
94 101 5 0 9 -2 9 -5z m14 -49 c-21 -25 -42 -46 -46 -46 -4 0 -7 -4 -5 -8 3
-12 -57 -78 -84 -92 -16 -8 -7 5 23 36 26 27 48 54 48 59 2 15 89 109 96 102
3 -3 -11 -26 -32 -51z m50 -5 c-27 -27 -48 -53 -47 -58 2 -6 -16 -28 -41 -51
-24 -22 -42 -43 -39 -46 8 -8 -58 -84 -78 -89 -16 -4 -13 2 12 31 18 21 38 41
46 45 7 5 11 12 8 17 -3 6 13 29 37 52 23 24 42 46 40 50 -3 12 97 112 105
104 4 -4 -15 -29 -43 -55z m61 5 c-32 -39 -62 -62 -71 -53 -5 5 87 97 98 97 5
0 -7 -20 -27 -44z m49 -10 c-22 -24 -46 -45 -54 -45 -10 -1 -11 -4 -3 -9 13
-8 -59 -92 -80 -92 -8 0 -7 -4 3 -10 12 -7 6 -17 -30 -53 -25 -24 -45 -48 -45
-54 0 -15 -59 -79 -81 -87 -14 -5 -11 1 11 25 17 18 39 41 50 51 15 13 16 17
5 18 -8 0 7 21 35 50 27 28 45 50 40 50 -5 0 13 23 40 50 27 28 46 50 41 50
-4 0 11 23 34 50 23 28 49 50 57 50 11 0 3 -15 -23 -44z m86 39 c0 -9 -89 -95
-99 -95 -5 0 0 10 12 23 12 13 32 35 44 50 20 24 43 36 43 22z m63 -56 c-28
-26 -46 -50 -41 -51 5 -2 -13 -25 -40 -50 -28 -26 -45 -49 -39 -51 13 -4 -77
-97 -95 -97 -7 0 9 21 35 46 27 26 46 49 42 52 -3 3 16 27 42 54 26 26 44 48
39 48 -5 0 9 19 30 42 26 29 33 43 24 46 -8 3 -28 -11 -45 -30 -16 -19 -39
-38 -50 -42 -12 -4 -1 13 28 41 43 44 51 49 84 45 l37 -5 -51 -48z m97 46 c0
-2 -20 -25 -45 -51 -25 -25 -43 -49 -40 -54 6 -9 -80 -90 -95 -90 -6 0 9 21
34 46 25 25 44 49 43 54 -3 10 81 100 94 100 5 0 9 -2 9 -5z m-376 -120 c-26
-35 -61 -61 -70 -52 -5 4 82 87 91 87 3 0 -6 -16 -21 -35z m94 -20 c-61 -59
-82 -58 -25 0 25 25 51 45 58 45 8 0 -7 -21 -33 -45z m72 18 c-36 -42 -61 -63
-73 -63 -6 0 9 20 33 45 48 49 79 62 40 18z m-2627 -8 c4 -8 3 -16 -1 -19 -4
-3 -9 4 -9 15 -2 23 3 25 10 4z m1716 -32 c-13 -15 -28 -32 -34 -38 -5 -6 -19
-14 -30 -19 -12 -4 -3 11 25 38 47 49 80 64 39 19z m105 -5 c-40 -46 -50 -55
-69 -62 -16 -6 -14 0 10 25 37 41 57 58 69 59 5 0 1 -10 -10 -22z m145 -24
c-51 -53 -79 -66 -44 -20 28 36 51 55 69 56 6 0 -6 -16 -25 -36z m45 -9 c-20
-25 -40 -45 -45 -45 -5 0 -6 -6 -3 -14 3 -8 -14 -30 -41 -54 -25 -22 -41 -42
-35 -44 6 -2 -9 -24 -34 -50 -24 -26 -40 -48 -34 -50 6 -2 -13 -25 -41 -50
-28 -25 -46 -48 -40 -50 6 -2 -12 -25 -41 -51 -29 -26 -47 -47 -40 -47 17 0
-49 -73 -74 -83 -14 -5 -6 7 22 36 23 24 40 46 37 49 -4 3 12 25 34 49 23 24
41 47 41 52 0 4 20 27 43 52 24 25 42 47 39 50 -3 3 13 25 36 48 24 24 40 46
37 48 -3 3 14 26 37 50 23 24 41 48 39 53 -2 11 79 96 92 96 4 0 -8 -20 -29
-45z m93 -21 c-27 -24 -43 -44 -36 -44 15 0 -47 -67 -76 -82 -14 -8 -12 -1 10
23 17 19 35 37 42 42 7 4 10 13 7 21 -6 15 84 101 94 91 4 -4 -15 -27 -41 -51z
m122 10 c-51 -53 -79 -66 -44 -20 28 36 51 55 69 56 6 0 -6 -16 -25 -36z m50
-5 c-18 -22 -38 -43 -46 -46 -7 -3 -10 -10 -7 -15 7 -11 -50 -74 -81 -90 -20
-11 37 58 62 75 7 4 10 13 7 21 -4 11 76 96 92 96 3 0 -9 -18 -27 -41z m95
-19 c-29 -27 -47 -51 -41 -53 13 -4 -68 -87 -85 -87 -7 0 7 19 30 43 23 24 40
46 37 49 -8 8 80 98 96 98 8 0 -9 -23 -37 -50z m106 -5 c-24 -25 -49 -45 -54
-45 -6 0 10 20 34 45 24 25 49 45 54 45 6 0 -10 -20 -34 -45z m65 4 c-58 -59
-86 -70 -41 -16 21 25 43 48 49 51 30 12 28 3 -8 -35z m104 -6 c-40 -44 -51
-53 -64 -53 -5 0 11 20 35 45 53 54 78 61 29 8z m98 -17 c-25 -25 -51 -46 -58
-46 -8 1 10 23 40 51 66 61 80 57 18 -5z m62 5 c-17 -22 -38 -42 -46 -45 -8
-3 -11 -11 -8 -17 8 -12 -47 -74 -80 -91 -11 -6 1 12 28 39 26 27 44 52 40 56
-7 8 75 97 90 97 4 0 -6 -18 -24 -39z m-1174 -20 c-20 -21 -46 -42 -58 -45
-16 -4 -9 7 25 39 58 55 82 59 33 6z m94 -16 c-26 -24 -42 -46 -37 -47 5 -2
-13 -25 -40 -50 -28 -26 -46 -48 -41 -50 5 -2 -8 -21 -30 -42 -49 -48 -63 -44
-18 4 18 19 32 37 32 41 0 4 18 27 40 51 21 23 38 48 37 54 -3 14 73 84 91 84
6 0 -9 -20 -34 -45z m99 -10 c-25 -24 -42 -45 -37 -47 5 -2 -11 -23 -35 -48
-24 -25 -42 -48 -40 -51 2 -3 -17 -27 -41 -53 -25 -25 -40 -46 -35 -46 14 0
-63 -76 -85 -83 -12 -5 -2 10 25 36 25 25 45 48 43 53 -2 6 15 27 37 49 22 21
40 44 40 50 0 5 17 28 37 49 21 22 38 46 39 55 3 19 84 94 93 85 3 -3 -15 -25
-41 -49z m62 6 c-18 -22 -41 -42 -52 -45 -15 -3 -9 7 23 40 53 54 71 58 29 5z
m97 -14 c-23 -24 -42 -48 -42 -54 0 -15 -63 -83 -77 -83 -10 0 -10 -2 -1 -8 8
-5 -1 -22 -31 -54 -24 -26 -42 -49 -40 -50 6 -7 -84 -98 -97 -98 -7 0 8 22 34
48 26 27 45 51 42 54 -3 3 15 24 40 47 25 23 43 46 41 50 -3 4 14 29 39 54 24
25 39 47 33 49 -11 4 76 88 91 88 6 0 -9 -20 -32 -43z m101 -12 c-25 -24 -42
-45 -37 -47 5 -2 -10 -24 -34 -50 -23 -26 -41 -51 -39 -56 1 -5 -17 -27 -41
-49 -24 -22 -42 -44 -40 -50 2 -5 -16 -28 -41 -51 -24 -22 -42 -43 -39 -46 9
-8 -58 -84 -80 -90 -14 -3 -7 9 27 43 25 26 44 50 41 52 -3 3 14 26 37 50 23
24 43 51 44 59 2 8 22 32 45 53 23 20 36 37 28 37 -7 0 7 21 33 48 25 26 44
52 41 58 -4 13 87 97 96 88 3 -3 -15 -25 -41 -49z m72 18 c-36 -42 -61 -63
-73 -63 -6 0 9 20 33 45 48 49 79 62 40 18z m88 -28 c-61 -59 -82 -58 -25 0
25 25 51 45 58 45 8 0 -7 -21 -33 -45z m160 -10 c-26 -25 -52 -45 -58 -45 -7
0 9 20 34 45 26 25 52 45 59 45 7 0 -9 -21 -35 -45z m49 -9 c-25 -25 -51 -46
-59 -46 -7 0 11 23 40 51 65 63 80 59 19 -5z m62 5 c-19 -21 -43 -41 -53 -44
-12 -4 -3 11 25 39 53 54 74 58 28 5z m43 -13 c-23 -23 -44 -40 -46 -37 -3 3
13 24 35 48 23 23 44 40 47 36 3 -3 -13 -24 -36 -47z m-1157 32 c3 -5 1 -10
-4 -10 -6 0 -11 5 -11 10 0 6 2 10 4 10 3 0 8 -4 11 -10z m1214 -33 c-24 -24
-44 -48 -44 -53 0 -16 -63 -84 -77 -84 -11 0 -11 -2 0 -8 9 -6 1 -21 -30 -55
-24 -25 -42 -50 -40 -55 3 -10 -83 -92 -97 -92 -6 0 11 21 36 48 26 26 48 54
49 62 2 8 19 30 38 48 20 18 35 36 33 41 -1 5 18 30 41 55 24 25 38 46 31 46
-7 0 8 20 33 45 25 25 51 45 58 45 7 0 -7 -19 -31 -43z m65 11 c-38 -44 -56
-58 -68 -58 -6 0 10 20 34 45 50 51 79 62 34 13z m105 -14 c-18 -20 -43 -40
-54 -46 -17 -9 -16 -6 5 18 35 42 61 64 73 64 6 0 -5 -16 -24 -36z m-1160 9
c-27 -35 -54 -60 -74 -66 -12 -4 -1 11 27 38 47 45 72 60 47 28z m79 -38 c-25
-25 -52 -45 -59 -45 -7 0 8 20 33 45 26 25 52 45 59 45 7 0 -8 -20 -33 -45z
m111 -1 c-33 -35 -69 -60 -69 -49 0 11 78 85 91 85 7 0 -3 -16 -22 -36z m143
-23 c-28 -28 -46 -51 -40 -53 5 -2 -11 -23 -36 -46 -26 -24 -44 -47 -41 -51 4
-8 -78 -91 -90 -91 -3 0 9 18 26 40 18 22 36 40 41 40 4 0 8 6 8 13 0 8 17 32
38 55 21 22 36 45 34 50 -3 11 83 92 99 92 6 0 -12 -22 -39 -49z m117 3 c-18
-20 -43 -40 -54 -46 -17 -9 -16 -6 5 18 35 42 61 64 73 64 6 0 -5 -16 -24 -36z
m72 17 c-6 -10 -26 -32 -46 -50 -20 -17 -31 -31 -25 -31 17 0 -63 -89 -80 -90
-10 0 -11 -3 -3 -8 13 -8 -53 -84 -83 -96 -14 -5 -10 2 11 26 16 18 37 39 45
46 8 7 15 17 15 21 0 5 18 29 40 53 21 23 40 50 41 58 3 14 77 90 89 90 3 0 1
-8 -4 -19z m33 -26 c-25 -34 -53 -55 -70 -55 -5 0 12 20 36 45 53 54 72 59 34
10z m40 -15 c-29 -27 -48 -50 -43 -52 5 -2 -10 -24 -34 -51 -24 -26 -42 -49
-40 -51 3 -2 -15 -25 -40 -50 -24 -25 -42 -48 -39 -51 8 -7 -59 -79 -82 -88
-17 -7 -15 -2 9 25 17 18 38 38 48 46 9 7 15 17 12 22 -3 5 12 29 35 53 22 24
40 48 40 54 0 5 18 26 40 48 21 21 37 41 35 45 -6 9 81 100 96 100 8 0 -9 -23
-37 -50z m54 -2 c-24 -25 -43 -49 -43 -55 0 -14 -62 -83 -75 -83 -6 0 -8 -5
-5 -10 8 -13 -51 -82 -79 -93 -13 -5 -1 12 29 43 28 28 48 53 47 56 -2 3 13
24 34 47 21 23 37 45 36 49 -2 9 88 101 94 95 3 -3 -14 -25 -38 -49z m61 5
c-40 -44 -51 -53 -64 -53 -5 0 11 20 35 45 53 54 78 61 29 8z m45 -13 c-29
-27 -48 -50 -43 -52 5 -2 -11 -24 -35 -50 -24 -26 -42 -49 -40 -51 3 -2 -15
-25 -38 -50 -24 -25 -43 -50 -43 -55 0 -16 -72 -92 -86 -92 -7 0 9 23 36 50
27 28 43 50 35 50 -8 0 8 23 35 50 27 28 45 50 40 50 -5 0 12 22 38 48 26 27
45 51 42 53 -7 8 82 99 97 99 7 0 -10 -23 -38 -50z m55 -5 c-26 -24 -45 -46
-42 -49 8 -7 -60 -86 -74 -86 -7 0 -10 -6 -7 -13 2 -7 -16 -34 -41 -60 -24
-26 -39 -47 -33 -47 14 0 -58 -77 -86 -92 -12 -7 -7 4 14 30 18 23 39 43 47
46 8 3 11 11 7 17 -3 6 15 33 42 60 27 28 47 52 44 54 -3 3 15 25 39 50 24 25
38 45 31 45 -7 0 11 23 40 51 28 28 55 48 58 44 4 -4 -14 -26 -39 -50z m60 8
c-17 -21 -38 -41 -45 -46 -7 -4 -11 -13 -8 -21 3 -7 -15 -31 -40 -54 -25 -23
-41 -42 -35 -42 15 0 -60 -83 -83 -92 -13 -6 -10 3 13 32 17 21 38 41 46 44 8
3 12 10 9 15 -3 4 13 28 36 52 23 24 41 48 39 53 -2 11 79 96 92 96 5 0 -6
-17 -24 -37z m110 -9 c-18 -20 -43 -40 -54 -46 -17 -9 -16 -6 5 18 35 42 61
64 73 64 6 0 -5 -16 -24 -36z m61 6 c-11 -16 -31 -37 -43 -47 -12 -10 -22 -23
-22 -29 0 -15 -62 -84 -75 -84 -6 0 -8 -4 -5 -10 8 -14 -52 -87 -77 -94 -17
-4 -14 2 13 32 19 20 39 40 44 44 6 4 10 12 10 17 0 5 18 29 40 53 21 23 40
50 41 58 3 15 77 90 89 90 4 0 -3 -13 -15 -30z m50 -7 c-36 -42 -61 -63 -73
-63 -6 0 9 20 33 45 48 49 79 62 40 18z m49 -10 c-18 -21 -40 -41 -47 -46 -7
-5 -10 -12 -7 -16 2 -5 -14 -29 -38 -54 -23 -25 -42 -50 -42 -55 0 -14 -63
-82 -77 -82 -8 0 -9 -3 -1 -11 7 -7 -3 -23 -33 -55 -24 -24 -49 -44 -56 -44
-7 0 9 22 35 48 26 27 45 51 42 53 -3 3 14 26 37 50 23 24 43 51 44 59 2 8 21
32 43 52 21 20 35 38 30 40 -11 4 79 98 94 98 6 0 -5 -17 -24 -37z m-1030 -32
c-19 -22 -39 -40 -46 -40 -7 -1 -10 -7 -8 -13 5 -15 -43 -71 -77 -88 -20 -11
-20 -9 7 21 17 19 39 42 50 51 11 10 16 18 10 18 -12 0 76 90 88 90 5 0 -6
-18 -24 -39z m260 -21 c-18 -22 -36 -40 -41 -40 -4 0 -8 -6 -8 -13 0 -17 -75
-97 -91 -97 -7 0 9 23 36 50 27 28 45 50 40 50 -5 0 11 20 35 45 55 56 72 59
29 5z m98 -16 c-26 -25 -45 -49 -42 -54 5 -7 -78 -90 -91 -90 -3 0 9 18 26 40
17 22 35 40 40 40 4 0 11 11 14 24 6 25 69 86 88 86 6 0 -10 -21 -35 -46z
m159 -10 c-25 -25 -44 -49 -41 -54 2 -4 -17 -28 -44 -53 -27 -25 -45 -47 -40
-49 5 -2 -11 -24 -35 -50 -24 -27 -40 -48 -34 -48 5 0 -8 -20 -29 -45 -20 -25
-43 -45 -50 -45 -7 0 -10 -6 -7 -14 6 -16 -66 -96 -87 -96 -7 0 9 23 36 50 27
28 45 50 40 50 -5 0 12 22 38 48 26 27 44 51 40 55 -4 4 12 27 35 50 24 24 40
45 38 48 -3 2 14 26 38 51 24 26 42 49 40 51 -7 7 82 97 95 97 7 0 -8 -21 -33
-46z m273 -13 c-17 -22 -38 -42 -46 -45 -8 -3 -12 -10 -9 -15 3 -5 -13 -29
-37 -54 -23 -25 -42 -50 -42 -55 0 -14 -59 -78 -81 -86 -14 -5 -12 1 11 26 16
18 36 39 44 46 8 6 16 19 17 28 2 9 19 33 38 53 20 20 36 41 36 46 0 12 81 95
93 95 4 0 -6 -18 -24 -39z m98 -17 c-26 -25 -45 -49 -43 -53 3 -4 -15 -27 -39
-51 -24 -23 -41 -48 -39 -55 3 -6 -15 -30 -40 -53 -24 -22 -40 -42 -35 -44 4
-2 -12 -25 -36 -52 -25 -26 -43 -51 -40 -55 5 -10 -83 -97 -90 -89 -4 3 12 25
34 48 22 24 39 46 36 50 -2 4 16 26 40 50 24 24 42 47 39 51 -2 4 15 28 39 53
24 25 40 47 35 48 -4 2 13 25 37 52 25 26 45 52 45 56 0 13 77 90 91 90 8 0
-7 -21 -34 -46z m112 -4 c-18 -22 -37 -40 -42 -40 -5 0 -7 -6 -4 -13 5 -15
-74 -97 -94 -97 -7 0 9 21 35 46 26 26 44 49 41 52 -6 7 75 92 88 92 4 0 -7
-18 -24 -40z m48 -8 c-26 -27 -45 -50 -43 -53 3 -2 -14 -26 -38 -51 -24 -26
-41 -50 -38 -52 7 -8 -59 -80 -82 -89 -19 -7 -18 -6 4 20 13 15 36 38 50 50
16 15 20 23 10 23 -8 0 6 21 33 48 26 26 47 52 47 57 0 14 80 95 93 95 6 0
-10 -22 -36 -48z m-1098 -118 c-18 -20 -43 -40 -54 -46 -17 -9 -16 -6 5 18 35
42 61 64 73 64 6 0 -5 -16 -24 -36z m61 9 c-14 -16 -36 -38 -50 -50 -14 -13
-19 -23 -12 -23 7 0 -4 -20 -25 -45 -20 -25 -44 -45 -52 -45 -9 0 1 16 26 43
22 23 39 47 36 53 -2 6 17 30 41 52 52 48 71 56 36 15z m99 -19 c-18 -20 -43
-40 -54 -46 -17 -9 -16 -6 5 18 35 42 61 64 73 64 6 0 -5 -16 -24 -36z m49 -9
c-18 -20 -41 -41 -51 -47 -18 -9 -18 -8 -1 17 18 27 76 77 82 70 2 -2 -11 -20
-30 -40z m51 -4 c-17 -22 -39 -43 -47 -46 -11 -4 -13 -8 -5 -13 13 -8 -61 -96
-76 -90 -6 1 7 22 28 45 22 23 36 44 33 48 -7 6 78 95 91 95 4 0 -6 -18 -24
-39z m94 -20 c-29 -27 -47 -51 -41 -53 6 -2 -9 -25 -33 -50 -24 -26 -44 -50
-44 -56 0 -14 -59 -78 -80 -86 -17 -6 -16 -3 5 21 13 15 33 36 45 47 11 10 20
22 20 26 0 4 16 28 35 51 19 24 35 47 35 51 0 13 83 98 96 98 7 0 -10 -22 -38
-49z m215 -17 c-26 -24 -53 -44 -60 -44 -7 0 12 23 41 51 29 28 56 47 59 44 4
-4 -14 -26 -40 -51z m56 1 c-20 -25 -41 -45 -48 -46 -7 0 -7 -2 1 -6 16 -6
-55 -93 -76 -93 -11 0 -12 -3 -4 -11 8 -8 -1 -23 -32 -55 -24 -24 -50 -44 -57
-44 -7 0 8 21 34 46 26 25 47 49 45 53 -1 5 16 28 38 52 22 24 39 48 37 53 -3
10 77 96 91 96 4 0 -8 -20 -29 -45z m104 -12 c-26 -26 -50 -45 -53 -42 -8 8
70 89 86 89 7 0 -7 -21 -33 -47z m166 -7 c-20 -25 -46 -47 -57 -50 -16 -4 -13
3 14 32 69 74 101 87 43 18z m100 -16 c-29 -27 -47 -51 -41 -53 6 -2 -10 -25
-36 -51 -25 -26 -45 -51 -44 -55 3 -11 -56 -76 -76 -84 -12 -4 -7 7 14 33 18
22 36 40 42 40 5 0 7 6 5 12 -3 7 14 33 36 57 23 24 40 47 39 51 -3 12 83 100
98 100 8 0 -9 -23 -37 -50z m54 -6 c-65 -61 -80 -56 -17 7 28 28 54 48 57 44
4 -4 -14 -26 -40 -51z m56 -4 c-29 -27 -47 -51 -42 -52 13 -5 -75 -98 -92 -98
-8 0 7 22 33 48 26 27 45 51 42 54 -9 9 79 98 96 98 8 0 -9 -23 -37 -50z
m-1187 -5 c-26 -25 -52 -45 -59 -45 -16 1 76 90 93 90 6 0 -9 -20 -34 -45z
m-2367 10 c-7 -9 -15 -13 -18 -10 -3 2 1 11 8 20 7 9 15 13 18 10 3 -2 -1 -11
-8 -20z m2479 -11 c-47 -49 -84 -68 -44 -23 39 44 56 59 69 59 5 0 -6 -16 -25
-36z m72 17 c-6 -10 -25 -31 -43 -47 -18 -16 -33 -34 -33 -40 0 -15 -58 -79
-79 -87 -20 -8 35 61 61 76 7 5 11 12 8 17 -3 5 14 30 38 55 46 47 65 58 48
26z m30 -30 c-17 -21 -40 -41 -51 -44 -15 -4 -8 7 22 39 52 54 71 58 29 5z
m108 -10 c-19 -21 -42 -41 -53 -44 -16 -5 -15 -2 5 21 32 38 72 72 78 67 2 -3
-11 -22 -30 -44z m156 -13 c-22 -24 -41 -44 -42 -46 -1 -2 -7 -2 -12 -1 -14 5
62 89 80 89 7 0 -5 -19 -26 -42z m76 23 c-6 -10 -25 -31 -43 -47 -18 -16 -33
-34 -33 -40 0 -15 -58 -79 -79 -87 -20 -8 35 61 61 76 7 5 11 12 8 17 -3 5 14
30 38 55 46 47 65 58 48 26z m26 -36 c-22 -25 -47 -45 -56 -45 -9 0 2 17 29
45 24 25 49 45 56 45 6 0 -7 -20 -29 -45z m112 -4 c-19 -22 -40 -40 -48 -40
-7 -1 -11 -7 -8 -14 3 -8 -14 -35 -38 -60 -24 -26 -38 -47 -33 -47 15 0 -62
-84 -85 -93 -14 -5 -10 3 13 30 18 21 39 41 46 46 7 4 11 13 8 20 -2 7 14 30
36 52 22 21 40 44 40 50 0 15 76 95 90 95 7 0 -3 -18 -21 -39z m72 20 c-6 -10
-26 -32 -45 -49 -19 -16 -32 -33 -28 -36 7 -7 -54 -73 -83 -89 -22 -11 38 62
62 76 7 5 11 12 8 17 -3 5 14 30 38 55 46 47 65 58 48 26z m83 -33 c-21 -24
-41 -45 -46 -46 -4 -2 -5 -8 -2 -14 3 -5 -14 -29 -39 -53 -24 -24 -40 -46 -35
-47 5 -2 -13 -27 -40 -55 -26 -29 -44 -54 -40 -55 12 -4 -77 -98 -92 -98 -8 0
6 20 30 45 25 25 45 52 45 59 0 8 18 33 40 57 22 24 39 48 38 54 -2 6 15 29
37 50 22 21 40 44 40 50 0 14 77 95 91 95 6 0 -6 -19 -27 -42z m55 -7 c-19
-22 -39 -40 -46 -40 -7 -1 -10 -7 -7 -14 6 -15 -67 -97 -87 -97 -7 0 8 22 34
48 26 27 45 51 42 53 -3 3 16 27 41 53 54 57 72 54 23 -3z m49 -6 c-61 -59
-82 -58 -25 0 25 25 51 45 58 45 8 0 -7 -21 -33 -45z m116 0 c-25 -34 -53 -55
-70 -55 -5 0 12 20 36 45 53 54 72 59 34 10z m-1035 -22 c-18 -21 -42 -42 -53
-46 -14 -5 -5 8 24 37 53 55 75 61 29 9z m99 -18 c-25 -25 -51 -45 -58 -45 -6
0 9 20 34 45 26 25 51 45 58 45 6 0 -9 -20 -34 -45z m55 0 c-20 -25 -41 -45
-46 -45 -4 0 -5 -5 -2 -10 9 -14 -50 -86 -77 -93 -16 -5 -9 7 28 44 26 27 42
49 34 49 -8 0 8 23 35 50 61 62 79 65 28 5z m56 -2 c-18 -21 -42 -42 -53 -46
-17 -7 -15 -2 9 25 60 65 100 84 44 21z m154 -18 c-20 -25 -41 -45 -46 -45 -4
0 -5 -4 -2 -10 8 -14 -52 -87 -77 -93 -18 -5 -17 -1 8 26 16 18 38 40 49 49
15 13 16 18 5 18 -8 0 7 21 35 50 61 62 79 65 28 5z m95 -20 c-25 -24 -41 -46
-35 -48 12 -4 -48 -74 -78 -90 -18 -9 -19 -9 -6 9 8 10 26 31 40 47 14 15 26
34 27 43 3 21 83 98 92 89 4 -3 -14 -26 -40 -50z m386 -19 c-20 -25 -46 -47
-57 -50 -16 -4 -13 3 14 32 69 74 101 87 43 18z m99 -16 c-28 -28 -47 -50 -41
-50 14 0 -49 -78 -74 -91 l-21 -11 20 28 c12 16 30 37 42 48 11 10 18 22 16
26 -7 11 81 100 97 100 7 0 -10 -23 -39 -50z m66 4 c-18 -20 -43 -40 -53 -46
-17 -9 -17 -7 3 21 23 32 59 61 75 61 6 0 -6 -16 -25 -36z m-1041 -30 c-26
-24 -53 -44 -60 -44 -7 0 12 23 41 51 29 28 56 47 59 44 4 -4 -14 -26 -40 -51z
m61 5 c-18 -22 -38 -43 -45 -46 -7 -2 -11 -10 -8 -17 5 -12 -72 -93 -81 -85
-2 3 12 23 32 45 20 21 36 43 34 48 -2 11 79 96 92 96 5 0 -6 -18 -24 -41z
m105 -11 c-53 -60 -86 -71 -39 -13 34 41 48 52 69 54 4 1 -9 -18 -30 -41z m44
-14 c-65 -61 -80 -56 -17 7 28 28 54 48 57 44 4 -4 -14 -26 -40 -51z m61 5
c-18 -22 -38 -43 -45 -46 -7 -2 -11 -10 -9 -16 6 -15 -53 -80 -80 -91 -12 -4
0 13 28 42 26 26 44 51 40 55 -7 8 75 97 90 97 5 0 -6 -18 -24 -41z m105 -13
c-22 -24 -46 -45 -54 -45 -13 -1 -13 -2 0 -11 12 -7 6 -18 -32 -54 -25 -26
-51 -46 -57 -46 -7 0 9 21 33 46 25 25 44 49 41 53 -6 10 79 101 95 101 7 0
-5 -20 -26 -44z m100 -11 c-20 -25 -44 -45 -52 -45 -11 0 -1 16 28 45 24 25
48 45 53 45 4 0 -8 -20 -29 -45z m110 -9 c-21 -24 -46 -45 -54 -45 -13 -1 -13
-2 0 -11 12 -8 9 -15 -20 -45 -19 -20 -44 -41 -54 -47 -17 -9 -17 -7 3 21 12
17 31 37 43 45 11 8 18 19 14 24 -7 11 92 117 101 108 3 -3 -12 -26 -33 -50z
m86 39 c0 -10 -65 -77 -85 -88 -18 -9 -19 -9 -6 9 44 57 91 98 91 79z m74 -49
c-20 -25 -45 -47 -56 -49 -14 -4 -9 6 18 36 40 45 54 57 67 57 4 0 -9 -20 -29
-44z m55 -5 c-32 -36 -58 -56 -65 -48 -2 2 17 24 42 51 54 56 72 54 23 -3z
m79 25 c-8 -8 -25 -27 -39 -43 -13 -16 -32 -32 -42 -36 -14 -5 -11 2 9 29 28
36 61 64 77 64 5 0 2 -6 -5 -14z m82 -36 c-29 -37 -70 -69 -70 -55 0 10 82 95
92 95 5 0 -5 -18 -22 -40z m-926 -34 c-42 -47 -93 -76 -58 -33 26 33 77 77 87
77 5 0 -8 -20 -29 -44z m44 -12 c-26 -24 -53 -44 -60 -44 -7 0 12 23 41 51 29
28 56 47 59 44 4 -4 -14 -26 -40 -51z m61 5 c-18 -22 -38 -43 -46 -46 -7 -3
-10 -9 -7 -14 7 -12 -53 -81 -78 -91 -14 -6 -10 3 13 32 17 21 38 41 46 44 8
3 11 11 7 17 -6 11 72 99 89 99 5 0 -6 -18 -24 -41z m95 -19 c-29 -27 -47 -51
-40 -53 13 -5 -76 -97 -95 -97 -7 0 9 21 34 46 26 25 45 50 42 54 -7 11 80
100 97 100 7 0 -10 -23 -38 -50z m115 -1 c-18 -22 -38 -43 -46 -46 -7 -3 -10
-9 -7 -14 8 -13 -54 -86 -78 -92 -18 -5 -17 -1 8 26 16 17 37 37 47 45 9 7 14
18 11 24 -6 10 73 98 89 98 5 0 -6 -18 -24 -41z m81 33 c0 -13 -77 -92 -91
-92 -7 0 9 23 36 50 51 52 55 55 55 42z m23 -47 c-21 -24 -45 -45 -53 -45 -13
0 -13 -2 -1 -9 12 -8 9 -16 -15 -44 -16 -19 -40 -40 -53 -46 -21 -10 -20 -8 9
29 17 22 36 40 42 40 6 0 8 6 5 14 -6 14 76 106 94 106 6 0 -7 -20 -28 -45z
m137 26 c0 -5 -19 -26 -43 -48 -24 -22 -41 -45 -40 -50 5 -14 -70 -93 -88 -93
-7 0 8 22 34 48 26 27 45 51 42 54 -3 2 13 26 36 51 39 45 59 58 59 38z m73
-46 c-20 -25 -40 -45 -44 -45 -4 0 -6 -6 -5 -13 1 -16 -54 -81 -77 -90 -12 -4
-7 7 14 33 17 21 37 41 45 44 8 3 11 11 9 18 -5 13 70 98 87 98 5 0 -8 -20
-29 -45z m56 -4 c-19 -21 -42 -41 -53 -44 -16 -5 -15 -2 5 21 32 38 72 72 78
67 2 -3 -11 -22 -30 -44z m45 -11 c-29 -27 -47 -51 -42 -52 12 -4 -48 -75 -75
-90 -16 -8 -17 -7 -9 9 6 10 24 31 41 47 17 16 28 32 26 36 -7 11 79 100 96
100 8 0 -9 -23 -37 -50z m96 45 c0 -10 -64 -77 -82 -86 -29 -16 -21 0 25 47
38 40 57 53 57 39z m32 -32 c-28 -40 -61 -67 -70 -59 -6 7 70 86 83 86 4 0 -2
-12 -13 -27z m-894 -50 c-26 -26 -50 -45 -52 -42 -7 7 74 89 88 89 6 0 -10
-21 -36 -47z m116 -7 c-22 -24 -46 -45 -54 -45 -12 -1 -13 -3 -1 -10 10 -7 3
-19 -32 -55 -25 -25 -52 -46 -59 -46 -7 0 9 22 35 48 26 27 45 51 42 54 -8 7
81 98 96 98 6 0 -6 -20 -27 -44z m110 -2 c-15 -19 -34 -41 -43 -47 -9 -7 -16
-17 -16 -23 0 -15 -58 -79 -78 -87 -12 -4 -7 7 14 33 17 21 38 41 46 44 8 3
11 11 7 17 -6 11 72 99 89 99 4 0 -4 -16 -19 -36z m100 -18 c-22 -24 -46 -45
-54 -45 -13 -1 -13 -2 0 -11 12 -7 5 -18 -33 -56 -26 -26 -51 -43 -55 -40 -4
4 12 25 36 47 23 22 40 43 38 48 -6 10 79 101 94 101 7 0 -5 -20 -26 -44z
m136 27 c0 -5 -20 -27 -44 -50 -24 -23 -41 -44 -39 -47 9 -9 -58 -84 -80 -90
-14 -3 -7 9 27 43 25 26 43 50 39 54 -4 4 13 28 37 52 42 43 60 54 60 38z m73
-48 c-21 -24 -45 -45 -53 -45 -13 0 -13 -2 -1 -9 12 -8 8 -17 -20 -49 -46 -54
-79 -63 -37 -11 17 21 35 39 40 39 5 0 8 6 6 14 -3 16 75 106 92 106 6 0 -6
-20 -27 -45z m101 -15 c-29 -27 -48 -50 -43 -52 5 -2 -11 -25 -36 -52 -25 -27
-48 -46 -52 -42 -4 3 12 26 35 49 24 24 40 46 37 49 -8 8 80 98 96 98 8 0 -9
-23 -37 -50z m110 -5 c-20 -25 -40 -45 -44 -45 -4 0 -7 -6 -6 -13 1 -16 -54
-81 -77 -90 -12 -4 -7 7 14 33 17 21 38 41 46 44 8 3 11 11 7 17 -6 11 72 99
89 99 4 0 -8 -20 -29 -45z m55 -4 c-19 -22 -41 -41 -49 -41 -8 0 5 19 30 45
53 54 65 52 19 -4z m-715 -46 c-20 -25 -43 -45 -52 -45 -11 0 -8 9 14 32 64
71 94 80 38 13z m100 -15 c-29 -27 -47 -51 -42 -52 13 -5 -75 -98 -92 -98 -8
0 7 22 33 48 26 27 45 51 42 54 -8 8 80 98 96 98 8 0 -9 -23 -37 -50z m115 -1
c-18 -22 -38 -43 -46 -46 -7 -3 -10 -9 -7 -14 7 -12 -53 -81 -79 -92 -14 -5
-11 3 13 30 18 21 39 42 47 46 7 5 11 13 7 19 -6 10 73 98 89 98 5 0 -6 -18
-24 -41z m104 -14 c-21 -24 -44 -44 -52 -45 -15 0 9 33 52 73 38 34 38 16 0
-28z m117 5 c-11 -16 -32 -38 -46 -49 -13 -11 -20 -22 -15 -25 12 -8 -72 -96
-90 -96 -7 0 8 22 34 48 26 27 45 51 42 54 -7 6 74 98 87 98 5 0 0 -13 -12
-30z m93 -25 c-20 -25 -44 -45 -52 -45 -9 0 3 18 29 45 24 25 48 45 53 45 4 0
-9 -20 -30 -45z m106 -14 c-43 -50 -70 -54 -33 -6 26 35 55 57 63 50 2 -3 -11
-22 -30 -44z m-710 -37 c-19 -20 -43 -41 -54 -46 -19 -10 -19 -10 -5 8 25 33
83 85 88 79 3 -3 -10 -21 -29 -41z m58 1 c-17 -19 -42 -43 -56 -51 l-24 -17
22 31 c23 32 68 72 81 72 5 0 -6 -16 -23 -35z m102 -16 c-18 -22 -38 -43 -45
-46 -7 -2 -11 -10 -8 -17 6 -15 -68 -96 -87 -96 -7 0 8 22 34 48 26 27 44 51
40 55 -7 8 75 97 90 97 5 0 -6 -18 -24 -41z m105 -11 c-21 -24 -47 -47 -58
-51 -18 -7 -18 -5 4 20 33 38 73 73 84 73 4 0 -9 -19 -30 -42z m86 33 c0 -9
-86 -91 -96 -91 -8 0 12 27 50 67 31 32 46 40 46 24z m50 -10 c0 -9 -85 -91
-95 -91 -11 0 -3 12 36 55 40 43 59 55 59 36z m75 -45 c-33 -41 -65 -65 -65
-49 0 10 83 93 93 93 4 0 -8 -20 -28 -44z m55 -3 c-34 -39 -58 -58 -66 -51 -2
3 17 26 42 52 53 56 72 55 24 -1z m54 -7 c-53 -59 -85 -68 -38 -11 33 41 47
52 68 54 5 1 -9 -19 -30 -43z m76 35 c0 -14 -50 -70 -74 -83 -20 -11 -20 -10
-7 8 19 24 74 84 78 84 2 0 3 -4 3 -9z m-635 -95 c-39 -47 -74 -71 -56 -37 10
18 77 81 87 81 3 0 -11 -20 -31 -44z m109 -8 c-21 -24 -47 -47 -58 -51 -17 -7
-15 -2 9 25 38 42 68 67 79 68 4 0 -9 -19 -30 -42z m60 -1 c-30 -36 -63 -61
-70 -54 -2 2 17 25 42 51 51 54 73 56 28 3z m46 -14 c-18 -21 -42 -42 -54 -46
-19 -8 -19 -7 -1 15 28 34 78 78 83 73 3 -2 -10 -21 -28 -42z m48 -10 c-26
-26 -50 -44 -53 -41 -9 8 69 88 86 88 7 0 -7 -21 -33 -47z m81 30 c-39 -52
-89 -96 -89 -78 0 10 82 95 92 95 6 0 4 -8 -3 -17z m29 -35 c-20 -24 -44 -45
-54 -46 -13 -3 -5 10 26 42 56 58 74 60 28 4z m52 -7 c-29 -36 -58 -57 -66
-48 -2 2 17 24 43 50 55 56 68 55 23 -2z m53 -6 c-20 -25 -41 -45 -45 -45 -4
0 -5 -6 -3 -12 6 -15 -67 -98 -84 -98 -7 0 3 18 20 40 18 22 36 40 41 40 4 0
8 8 8 18 0 19 74 102 91 102 5 0 -7 -20 -28 -45z m56 -4 c-32 -37 -58 -56 -65
-48 -2 2 17 25 42 51 54 56 72 54 23 -3z m-555 -53 c-21 -24 -47 -47 -58 -51
-16 -6 -12 2 14 30 43 45 62 62 74 63 4 0 -9 -19 -30 -42z m59 -2 c-15 -19
-39 -39 -53 -46 l-25 -12 25 29 c35 41 61 63 72 63 6 0 -3 -15 -19 -34z m46
-15 c-38 -43 -87 -69 -53 -28 27 33 77 77 82 72 3 -2 -10 -22 -29 -44z m55 -5
c-49 -55 -86 -70 -47 -19 27 35 61 63 77 63 5 0 -9 -20 -30 -44z m79 32 c-24
-39 -93 -101 -93 -83 0 10 82 95 92 95 5 0 6 -6 1 -12z m31 -34 c-15 -19 -37
-42 -48 -50 -11 -8 -15 -14 -8 -14 16 0 -52 -86 -75 -94 -27 -11 -23 -2 20 44
23 25 40 49 39 54 -3 10 78 96 91 96 4 0 -4 -16 -19 -36z m46 -13 c-29 -36
-58 -57 -66 -48 -2 2 17 24 42 51 54 56 70 54 24 -3z m53 -6 c-20 -25 -41 -45
-45 -45 -4 0 -5 -6 -3 -12 5 -17 -69 -102 -84 -97 -7 3 8 25 33 51 24 26 40
48 36 50 -12 4 74 98 89 98 7 0 -5 -20 -26 -45z m107 -12 c-49 -56 -80 -64
-35 -8 34 41 55 57 64 49 2 -2 -11 -20 -29 -41z m-495 -54 c-52 -53 -92 -76
-50 -28 42 48 66 69 78 69 6 0 -7 -18 -28 -41z m55 1 c-11 -16 -31 -37 -44
-47 -12 -10 -21 -23 -19 -28 5 -15 -44 -71 -54 -62 -4 5 5 20 20 33 16 13 26
28 23 33 -6 9 74 101 88 101 4 0 -2 -13 -14 -30z m69 13 c-28 -38 -55 -65 -71
-74 -29 -15 -21 -2 26 46 43 44 71 61 45 28z m50 -10 c-39 -52 -89 -96 -89
-78 0 10 82 95 92 95 6 0 4 -8 -3 -17z m85 -38 c-20 -25 -43 -45 -52 -45 -11
0 -8 9 14 33 64 71 95 81 38 12z m110 -7 c-21 -24 -47 -47 -58 -51 -17 -7 -15
-2 9 25 42 47 66 68 77 68 6 0 -7 -19 -28 -42z m49 -13 c-45 -54 -77 -62 -37
-10 26 34 50 54 67 55 4 0 -9 -20 -30 -45z m-398 -69 c-32 -40 -65 -65 -65
-50 0 9 84 94 93 94 5 0 -8 -20 -28 -44z m58 -1 c-28 -36 -73 -72 -73 -58 0
10 82 93 93 93 4 0 -5 -16 -20 -35z m51 -7 c-40 -46 -64 -64 -64 -51 0 13 79
93 92 93 5 0 -7 -19 -28 -42z m60 0 c-16 -18 -37 -40 -46 -49 -10 -9 -15 -18
-12 -21 2 -3 -15 -27 -40 -54 -25 -26 -47 -46 -50 -43 -3 2 14 25 37 49 23 25
41 50 39 55 -3 14 73 95 89 95 7 0 0 -14 -17 -32z m46 -17 c-30 -36 -58 -57
-66 -48 -2 2 17 25 42 51 54 57 70 55 24 -3z m69 12 c-13 -15 -35 -38 -48 -51
-13 -13 -21 -26 -17 -29 3 -3 -15 -26 -39 -52 -55 -57 -69 -50 -15 9 22 23 38
46 35 50 -5 9 83 100 97 100 6 0 1 -12 -13 -27z m35 -25 c-21 -24 -41 -45 -46
-46 -4 -2 -6 -7 -3 -12 6 -9 -73 -100 -87 -100 -5 0 5 18 24 41 18 22 39 51
46 64 18 35 77 95 92 95 7 0 -5 -19 -26 -42z m-364 -33 c0 -2 -10 -9 -22 -15
-22 -11 -22 -10 -4 4 21 17 26 19 26 11z m8 -46 c-22 -23 -41 -39 -43 -37 -6
6 61 78 72 78 6 0 -8 -18 -29 -41z m57 -6 c-25 -25 -47 -44 -50 -41 -7 7 69
88 83 88 7 0 -8 -21 -33 -47z m113 -8 c-50 -56 -78 -65 -34 -12 34 42 56 59
64 51 2 -1 -11 -19 -30 -39z"/>
<path d="M1423 5676 c-21 -24 -29 -59 -23 -101 2 -14 4 -12 9 10 6 27 11 31
59 39 57 10 63 20 32 54 -27 29 -51 28 -77 -2z"/>
<path d="M1734 5585 c1 -19 4 -35 9 -35 4 0 7 6 7 13 0 6 3 22 6 35 5 15 2 22
-8 22 -10 0 -14 -11 -14 -35z"/>
<path d="M1576 5570 c9 -16 16 -30 17 -30 1 0 2 14 3 30 1 22 -3 30 -17 30
-16 0 -16 -2 -3 -30z"/>
<path d="M885 4950 c-3 -5 -1 -10 4 -10 6 0 11 5 11 10 0 6 -2 10 -4 10 -3 0
-8 -4 -11 -10z"/>
<path d="M447 4450 c-73 -79 -133 -137 -140 -133 -7 4 -8 0 -4 -11 5 -13 3
-17 -7 -13 -8 3 -20 0 -26 -8 -6 -7 -20 -10 -32 -7 -17 4 -42 -17 -130 -109
l-108 -114 0 -382 0 -382 97 4 c269 12 523 14 523 3 0 -6 8 -17 18 -24 14 -11
15 -16 5 -33 -17 -27 -16 -36 1 -22 17 14 47 97 38 105 -3 3 6 6 19 7 22 1 22
2 -8 14 -27 12 -73 62 -73 79 0 3 8 6 18 7 10 0 12 3 5 6 -7 2 -13 9 -13 14 0
6 5 7 11 3 12 -7 9 18 -18 121 -8 33 -14 89 -12 125 6 127 3 327 -7 435 -13
153 -11 231 8 295 11 37 13 59 7 67 -8 8 -2 13 18 15 20 3 11 6 -29 12 -61 9
-69 18 -41 48 9 10 14 18 12 18 -2 0 -62 -63 -132 -140z"/>
<path d="M230 4300 c0 -5 7 -7 15 -4 8 4 15 8 15 10 0 2 -7 4 -15 4 -8 0 -15
-4 -15 -10z"/>
<path d="M888 4303 c-3 -4 -6 -75 -7 -158 -2 -82 -5 -153 -7 -157 -5 -7 44
-24 50 -17 8 10 15 329 7 329 -5 0 -16 3 -24 6 -8 3 -17 2 -19 -3z"/>
<path d="M978 4131 c-2 -132 0 -162 11 -166 8 -3 18 -2 22 2 5 5 9 78 10 163
1 149 0 155 -19 158 -20 3 -21 -2 -24 -157z"/>
<path d="M3744 3800 c0 -113 2 -159 3 -102 2 56 2 148 0 205 -1 56 -3 10 -3
-103z"/>
<path d="M880 3917 c0 -19 -3 -55 -6 -81 -7 -44 -6 -46 19 -46 23 0 27 5 32
43 11 72 3 112 -22 115 -20 3 -23 -1 -23 -31z"/>
<path d="M977 3934 c-4 -4 -7 -40 -7 -81 0 -67 2 -73 20 -73 19 0 21 5 18 77
-3 70 -13 95 -31 77z"/>
<path d="M1450 3791 c0 -70 2 -81 18 -81 9 0 27 -3 40 -6 21 -6 22 -4 22 75 0
70 -2 81 -17 81 -10 0 -28 3 -40 6 -22 6 -23 4 -23 -75z"/>
<path d="M1580 3771 l0 -79 34 -4 33 -4 6 75 c3 41 4 79 1 83 -3 4 -21 8 -40
8 l-34 0 0 -79z"/>
<path d="M3742 3550 c0 -14 2 -19 5 -12 2 6 2 18 0 25 -3 6 -5 1 -5 -13z"/>
<path d="M3527 3539 c-7 -25 12 -33 56 -25 24 4 33 11 33 26 0 17 -7 20 -42
20 -34 0 -43 -4 -47 -21z"/>
<path d="M3348 3543 c-22 -3 -28 -10 -28 -29 0 -20 5 -24 28 -24 36 0 55 13
50 35 -3 21 -12 24 -50 18z"/>
<path d="M3420 3525 c0 -19 5 -25 23 -25 45 0 65 11 60 31 -4 15 -14 19 -44
19 -35 0 -39 -3 -39 -25z"/>
<path d="M3097 3513 c-13 -13 -7 -31 13 -36 16 -4 20 0 20 19 0 23 -18 32 -33
17z"/>
<path d="M3742 3425 c0 -16 2 -22 5 -12 2 9 2 23 0 30 -3 6 -5 -1 -5 -18z"/>
<path d="M3527 3424 c-4 -4 -7 -16 -7 -26 0 -16 6 -19 43 -16 34 2 42 7 42 23
0 16 -8 21 -35 23 -20 2 -39 0 -43 -4z"/>
<path d="M3420 3395 c0 -22 4 -25 39 -25 33 0 39 3 43 25 5 24 3 25 -38 25
-40 0 -44 -2 -44 -25z"/>
<path d="M3314 3395 c-9 -23 3 -45 21 -39 20 8 20 54 0 54 -9 0 -18 -7 -21
-15z"/>
<path d="M3108 3393 c-26 -7 -24 -53 2 -53 16 0 20 7 20 30 0 17 -1 29 -2 29
-2 -1 -11 -3 -20 -6z"/>
<path d="M3056 3363 c10 -40 14 -41 14 -5 0 18 -5 32 -10 32 -6 0 -8 -11 -4
-27z"/>
<path d="M323 3281 c-72 -3 -134 -9 -138 -13 -15 -15 65 -19 164 -9 57 6 110
11 118 11 8 0 11 5 8 10 -3 6 -9 9 -13 8 -4 -1 -66 -4 -139 -7z"/>
<path d="M498 3273 c7 -3 16 -2 19 1 4 3 -2 6 -13 5 -11 0 -14 -3 -6 -6z"/>
<path d="M18 3243 c7 -3 16 -2 19 1 4 3 -2 6 -13 5 -11 0 -14 -3 -6 -6z"/>
<path d="M568 2983 c-7 -959 -6 -921 -30 -934 -35 -19 -68 7 -68 53 0 27 4 38
15 38 8 0 15 4 15 9 0 11 -92 3 -100 -8 -9 -14 -54 -20 -67 -10 -7 7 -36 8
-78 4 l-65 -7 0 -63 c0 -55 -2 -63 -21 -68 -12 -3 -31 -2 -43 3 -18 7 -21 15
-20 59 l1 51 -42 0 c-22 0 -46 -5 -53 -12 -8 -8 -12 -50 -12 -124 l0 -111 90
5 c76 4 93 2 103 -11 7 -9 34 -19 62 -22 28 -4 79 -11 115 -16 90 -12 87 -13
94 26 4 21 13 35 21 35 8 0 15 5 15 10 0 16 26 12 43 -8 9 -10 19 -37 23 -62
6 -37 8 -40 15 -22 8 21 18 24 79 24 11 0 23 -1 28 -1 4 -1 57 -2 118 -1 60 1
122 -4 138 -9 15 -6 25 -7 22 -2 -3 5 1 12 10 15 26 10 54 7 60 -7 4 -13 29
-17 114 -18 28 -1 31 -3 15 -9 l-20 -9 20 0 c11 0 26 3 33 8 9 6 -10 14 -58
25 -40 9 -79 16 -86 16 -17 0 -18 24 -1 38 6 5 50 15 97 21 297 37 270 31 270
62 0 21 -5 28 -22 31 -34 5 -31 42 3 46 23 3 28 9 32 40 2 20 3 39 1 41 -2 2
-18 4 -36 5 -18 1 -35 4 -38 7 -3 3 -17 9 -32 13 l-28 6 0 -74 c0 -54 -4 -77
-15 -86 -13 -11 -13 -15 -3 -21 9 -6 6 -9 -9 -9 -22 0 -23 3 -23 99 l0 98 -61
12 c-34 7 -63 11 -65 9 -2 -2 -5 -37 -6 -78 -3 -72 -4 -75 -28 -78 l-25 -3 4
85 c3 82 2 85 -20 91 -68 16 -387 75 -406 75 -26 0 -31 7 -39 52 -9 45 -16
827 -8 856 4 12 13 22 22 22 21 0 12 6 -20 14 l-28 6 -2 -227z m102 -942 c-25
-15 -105 -17 -96 -3 3 5 29 9 58 10 35 1 48 -1 38 -7z m358 -31 c4 -12 3 -13
-10 -3 -8 7 -18 10 -21 6 -4 -3 -7 -1 -7 6 0 17 32 10 38 -9z m-858 -50 c-19
-13 -30 -13 -30 0 0 6 10 10 23 10 18 0 19 -2 7 -10z"/>
<path d="M316 3189 c-55 -4 -103 -12 -108 -17 -5 -5 29 -14 84 -21 51 -6 112
-14 136 -17 l42 -5 0 35 c0 41 14 39 -154 25z"/>
<path d="M850 3083 c0 -32 -3 -115 -7 -184 l-6 -126 25 -5 26 -5 7 178 c4 97
4 182 1 188 -4 6 -16 11 -27 11 -17 0 -19 -7 -19 -57z"/>
<path d="M945 2938 c0 -166 2 -183 18 -186 15 -3 17 6 17 91 0 52 3 135 6 185
l7 92 -24 0 -24 0 0 -182z"/>
<path d="M2675 3099 c-44 -5 -85 -11 -91 -13 -7 -3 -13 -153 -18 -483 -3 -263
-9 -488 -12 -500 -4 -13 -13 -23 -20 -23 -8 0 -14 -4 -14 -10 0 -5 -9 -10 -19
-10 -27 0 -51 -10 -51 -22 0 -6 10 -8 23 -4 12 3 68 13 124 21 106 16 139 14
323 -25 74 -16 143 -21 183 -15 l37 7 -2 176 -2 177 -6 -170 -5 -170 -41 1
c-75 1 -74 -1 -74 136 -1 135 -14 353 -26 407 -5 25 -4 32 4 27 9 -5 13 29 14
131 l2 138 6 -115 c5 -90 6 -69 6 95 l-1 210 -79 6 c-59 4 -80 9 -88 22 -10
19 -42 20 -173 6z m332 -196 c-3 -10 -5 -2 -5 17 0 19 2 27 5 18 2 -10 2 -26
0 -35z m-30 -485 c-3 -8 -6 -5 -6 6 -1 11 2 17 5 13 3 -3 4 -12 1 -19z m20
-125 c-3 -10 -5 -4 -5 12 0 17 2 24 5 18 2 -7 2 -21 0 -30z m0 -80 c-3 -10 -5
-4 -5 12 0 17 2 24 5 18 2 -7 2 -21 0 -30z"/>
<path d="M2078 3078 c5 -5 16 -8 23 -6 8 3 3 7 -10 11 -17 4 -21 3 -13 -5z"/>
<path d="M3735 3018 c-2 -7 -6 -145 -10 -305 -5 -261 -4 -293 9 -293 14 0 16
36 16 305 0 276 -3 331 -15 293z"/>
<path d="M3533 3000 l-23 -9 0 -296 0 -295 38 0 37 0 -2 295 c-1 217 2 295 10
295 7 0 5 5 -3 10 -18 12 -28 12 -57 0z"/>
<path d="M3438 2992 l-28 -3 0 -306 c0 -274 2 -305 16 -299 9 3 28 6 42 6 19
0 23 3 14 9 -11 7 -13 64 -11 292 1 156 7 287 12 290 13 9 -13 15 -45 11z"/>
<path d="M1342 2970 c0 -14 2 -19 5 -12 2 6 2 18 0 25 -3 6 -5 1 -5 -13z"/>
<path d="M1774 2920 c-1 -53 2 -70 12 -70 8 0 14 -4 14 -10 0 -5 -7 -10 -15
-10 -12 0 -15 -16 -15 -80 0 -44 0 -82 0 -85 0 -3 3 -5 8 -4 4 1 6 5 5 10 -2
5 6 9 17 9 13 0 18 -5 14 -15 -4 -8 -2 -15 3 -15 11 0 23 126 23 248 0 45 -4
82 -9 82 -5 0 -9 -6 -8 -12 1 -47 -4 -68 -19 -68 -12 0 -15 9 -13 42 2 23 -1
43 -6 45 -6 2 -10 -27 -11 -67z m26 -154 c0 -3 -4 -8 -10 -11 -5 -3 -10 -1
-10 4 0 6 5 11 10 11 6 0 10 -2 10 -4z"/>
<path d="M3313 2679 c3 -165 7 -302 9 -304 1 -2 15 -1 29 2 l25 5 -1 291 c-1
201 2 294 9 299 6 4 -9 8 -33 8 l-43 0 5 -301z"/>
<path d="M1888 2825 c-1 -80 -2 -155 -2 -167 -1 -18 5 -24 27 -26 l27 -3 0 65
c0 37 -4 66 -10 66 -14 0 -12 126 3 151 10 17 10 23 0 26 -7 3 -13 11 -13 19
0 8 -7 14 -15 14 -13 0 -15 -24 -17 -145z"/>
<path d="M2243 2962 c-22 -3 -23 -8 -25 -118 -4 -236 -6 -219 22 -216 14 2 26
5 27 6 7 6 11 326 5 329 -4 2 -17 1 -29 -1z"/>
<path d="M1151 2814 c0 -11 3 -14 6 -6 3 7 2 16 -1 19 -3 4 -6 -2 -5 -13z"/>
<path d="M1331 2774 c0 -11 3 -14 6 -6 3 7 2 16 -1 19 -3 4 -6 -2 -5 -13z"/>
<path d="M1332 2680 c0 -19 2 -27 5 -17 2 9 2 25 0 35 -3 9 -5 1 -5 -18z"/>
<path d="M720 2679 c0 -5 11 -9 25 -9 14 0 25 2 25 4 0 2 -11 6 -25 8 -14 3
-25 1 -25 -3z"/>
<path d="M1140 2625 c0 -14 4 -25 9 -25 4 0 6 11 3 25 -2 14 -6 25 -8 25 -2 0
-4 -11 -4 -25z"/>
<path d="M1762 2547 c-3 -70 -2 -75 20 -81 46 -12 48 -10 48 69 0 53 -4 75
-12 75 -7 0 -22 3 -33 6 -19 5 -21 0 -23 -69z m43 35 c-2 -9 -4 -26 -4 -36 -1
-30 -10 -14 -15 26 -3 28 -1 35 9 32 7 -3 12 -13 10 -22z m5 -66 c0 -2 -7 -6
-15 -10 -8 -3 -15 -1 -15 4 0 6 7 10 15 10 8 0 15 -2 15 -4z"/>
<path d="M1880 2526 c0 -68 2 -74 22 -79 12 -4 23 -5 25 -4 1 2 5 33 9 71 7
71 1 86 -38 86 -16 0 -18 -10 -18 -74z"/>
<path d="M2210 2515 c0 -88 4 -95 44 -79 13 5 16 22 16 85 l0 79 -30 0 -30 0
0 -85z"/>
<path d="M1143 2500 c0 -30 2 -43 4 -27 2 15 2 39 0 55 -2 15 -4 2 -4 -28z"/>
<path d="M1318 2450 c-2 -39 0 -70 4 -70 3 0 8 32 10 70 2 39 0 70 -4 70 -3 0
-8 -32 -10 -70z"/>
<path d="M1135 2430 c-3 -6 1 -13 10 -16 21 -9 26 -2 10 13 -9 8 -16 9 -20 3z"/>
<path d="M2454 2408 c-3 -5 6 -8 20 -8 14 0 28 4 31 10 4 6 -5 9 -20 8 -15 -2
-29 -6 -31 -10z"/>
<path d="M3720 2310 c0 -73 3 -90 15 -90 12 0 15 17 15 90 0 73 -3 90 -15 90
-12 0 -15 -17 -15 -90z"/>
<path d="M2223 2383 c9 -2 25 -2 35 0 9 3 1 5 -18 5 -19 0 -27 -2 -17 -5z"/>
<path d="M3528 2373 c-15 -4 -18 -17 -18 -88 0 -46 3 -86 8 -88 4 -3 21 -2 38
0 31 5 31 5 33 71 1 37 4 77 7 89 5 20 2 23 -22 22 -16 -1 -37 -3 -46 -6z"/>
<path d="M1132 2297 l2 -72 3 60 c2 33 9 62 14 66 7 4 4 9 -5 12 -14 6 -16 -4
-14 -66z"/>
<path d="M2475 2360 c-30 -8 -30 -8 8 -9 20 0 37 4 37 9 0 11 -2 11 -45 0z"/>
<path d="M3433 2363 c-22 -4 -23 -9 -23 -94 0 -96 1 -98 58 -83 15 4 19 10 13
18 -12 14 -11 96 1 120 8 14 7 17 -4 11 -10 -6 -11 -5 0 6 22 24 9 31 -45 22z"/>
<path d="M3320 2280 c0 -56 3 -70 15 -70 8 0 15 -4 15 -10 0 -5 -7 -10 -15
-10 -8 0 -15 -4 -15 -10 0 -15 50 -12 56 4 3 7 6 48 7 90 l2 76 -32 0 -33 0 0
-70z"/>
<path d="M1310 2265 c0 -36 0 -68 -1 -72 0 -5 8 -9 18 -11 14 -2 15 -1 4 7
-11 7 -13 24 -8 75 4 40 2 66 -3 66 -6 0 -10 -29 -10 -65z"/>
<path d="M620 2316 c0 -2 7 -7 16 -10 8 -3 12 -2 9 4 -6 10 -25 14 -25 6z"/>
<path d="M622 2288 c5 -15 28 -23 28 -10 0 5 -7 13 -16 16 -10 4 -14 1 -12 -6z"/>
<path d="M1495 2280 c3 -5 8 -10 11 -10 2 0 4 5 4 10 0 6 -5 10 -11 10 -5 0
-7 -4 -4 -10z"/>
<path d="M1490 2161 c0 -5 7 -12 16 -15 14 -5 15 -4 4 9 -14 17 -20 19 -20 6z"/>
<path d="M3680 2113 c-85 -7 -353 -43 -358 -48 -16 -16 24 -15 180 4 235 29
248 31 248 42 0 5 -6 8 -12 7 -7 -1 -33 -3 -58 -5z"/>
<path d="M1489 2098 c0 -2 -3 -16 -5 -32 l-5 -29 83 6 c70 4 108 -1 240 -29
169 -37 203 -41 178 -23 -11 8 -7 8 15 2 41 -11 214 -7 248 6 38 15 35 34 -5
28 -18 -2 -41 -1 -50 4 -10 6 -28 5 -45 -2 -54 -21 -228 -13 -368 16 -71 15
-141 29 -155 30 -14 1 -43 8 -65 14 -38 10 -64 14 -66 9z"/>
<path d="M1471 1898 c-14 -24 -17 -35 -8 -39 7 -4 62 -14 122 -23 61 -9 148
-25 195 -36 47 -11 126 -26 175 -34 50 -8 99 -17 110 -20 19 -5 58 -13 260
-51 44 -8 100 -20 125 -26 125 -28 277 -31 267 -5 -3 8 30 12 106 14 62 1 116
7 123 13 18 15 88 20 434 34 74 2 162 9 195 15 33 6 78 12 100 14 22 2 48 4
58 5 14 1 17 11 17 50 0 30 -5 51 -12 54 -10 4 -10 6 0 6 6 1 12 10 12 21 0
17 -6 20 -42 19 -24 0 -63 -4 -88 -7 -40 -6 -45 -10 -50 -36 -4 -21 -11 -30
-27 -31 -12 -1 -22 1 -21 4 4 39 -2 43 -54 37 -129 -16 -128 -16 -122 -41 4
-15 0 -24 -10 -28 -22 -9 -46 2 -46 20 0 13 -11 14 -67 8 -101 -10 -112 -14
-106 -36 6 -20 23 -27 23 -8 0 5 5 7 11 4 15 -10 5 -17 -41 -25 -35 -6 -43 -4
-53 11 -13 20 -65 25 -139 13 -54 -9 -47 -23 11 -22 27 0 58 -5 68 -11 10 -6
14 -11 8 -11 -5 0 -73 -9 -150 -20 -77 -12 -171 -21 -210 -22 -42 0 -83 -6
-101 -16 -39 -19 -64 -10 -64 21 0 23 -6 26 -87 40 -164 29 -183 31 -183 14 0
-16 -27 -27 -47 -20 -7 3 -13 16 -13 29 0 13 -2 24 -4 24 -3 0 -69 14 -148 30
-169 35 -168 35 -168 11 0 -10 -6 -21 -13 -24 -22 -8 -39 9 -39 37 0 14 -2 26
-3 26 -1 0 -57 11 -123 25 -66 14 -130 25 -140 25 -12 0 -29 -14 -41 -32z
m2149 -54 c0 -2 -9 -4 -20 -4 -11 0 -20 4 -20 9 0 5 9 7 20 4 11 -3 20 -7 20
-9z m-206 -26 c-3 -4 -17 -8 -32 -8 -17 0 -22 3 -15 8 16 10 53 10 47 0z m239
-48 c-7 -8 -52 -7 -47 1 2 4 15 6 28 5 13 0 22 -3 19 -6z"/>
<path d="M1117 1779 c7 -7 15 -10 18 -7 3 3 -2 9 -12 12 -14 6 -15 5 -6 -5z"/>
<path d="M1220 1781 c0 -6 -8 -15 -17 -18 -10 -4 -24 -12 -30 -19 -15 -14 1
-17 347 -68 632 -93 873 -127 877 -122 8 8 -60 24 -297 71 -124 25 -277 56
-340 69 -365 78 -540 106 -540 87z m50 -21 c-8 -5 -18 -6 -24 -3 -5 4 -1 10
10 13 24 9 34 2 14 -10z"/>
<path d="M2678 1763 c-16 -2 -28 -9 -28 -15 0 -5 7 -7 16 -4 9 3 39 6 66 6 28
0 49 2 47 4 -8 7 -74 13 -101 9z"/>
<path d="M3649 1718 c-23 -6 -176 -28 -370 -53 -53 -7 -102 -16 -109 -20 -7
-5 -43 -12 -79 -16 -185 -22 -250 -31 -291 -41 -25 -6 -61 -12 -80 -13 -39 -2
-100 -25 -100 -38 0 -5 -9 -6 -19 -2 -11 3 -22 1 -26 -5 -4 -6 10 -10 39 -10
39 0 389 40 606 70 41 5 140 17 220 26 183 20 208 23 245 28 17 3 38 5 48 5
13 1 17 10 17 41 l0 40 -38 -2 c-21 -2 -49 -6 -63 -10z"/>
<path d="M3625 1614 c-33 -7 -77 -13 -97 -14 -21 0 -38 -4 -38 -10 0 -17 155
-16 176 1 6 5 15 5 19 1 5 -4 5 -1 1 6 -5 9 3 12 28 12 20 0 36 5 36 10 0 13
-51 11 -125 -6z"/>
<path d="M3360 1570 c0 -5 11 -10 24 -10 14 0 28 5 31 10 4 6 -7 10 -24 10
-17 0 -31 -4 -31 -10z"/>
<path d="M3335 1560 c3 -5 8 -10 11 -10 2 0 4 5 4 10 0 6 -5 10 -11 10 -5 0
-7 -4 -4 -10z"/>
<path d="M2420 1550 c8 -5 26 -9 40 -9 l25 1 -25 8 c-14 4 -32 8 -40 9 -13 1
-13 0 0 -9z"/>
</g>
</svg>
